# xmcd
#
# Track frame offsets:
#	150
#	15163
#	33223
#	45170
#	55433
#	71131
#	88140
#	104433
#	128270
#	147424
#	162455
#	172569
#
# Disc length: 2580 seconds
#
# Revision: 1
# Processed by: cddbd v1.5.2PL0 Copyright (c) Steve Scherf et al.
# Submitted via: audiograbber 1.83.01
#
DISCID=8f0a120c
DTITLE=Bob Wayne - Back To The Camper
DYEAR=2014
DGENRE=Country
TTITLE0=Sam Tucker
TTITLE1=20 Miles To Juarez
TTITLE2=The River
TTITLE3=Til' I Die
TTITLE4=Dope Train
TTITLE5=Evangeline
TTITLE6=Hillbilly Heaven
TTITLE7=Granuaile 
TTITLE8=Showdown
TTITLE9=I Just Got Out
TTITLE10=Violent Side Of Me
TTITLE11=Revelation
EXTD=
EXTT0=
EXTT1=
EXTT2=
EXTT3=
EXTT4=
EXTT5=
EXTT6=
EXTT7=
EXTT8=
EXTT9=
EXTT10=
EXTT11=
PLAYORDER=
